<svg width="1192" height="1168" viewBox="0 0 1192 1168" fill="none" xmlns="http://www.w3.org/2000/svg">
<path d="M1164.08 1167.76L1191.08 1030.02C1146.18 984.1 1035.1 885.537 987.276 842.652C951.182 810.376 952.417 793.537 992.604 764.574C1138.99 658.881 1197.09 477.86 1145.67 302.568C1097.23 137.152 942.146 7.7142 766.74 3.28191C523.865 -2.83788 280.708 1.54233 37.6615 1.20378C17.2865 1.20378 0 2.94337 0 30.1673C0.338541 138.667 0.223958 247.053 0.223958 364.985L0.338542 364.87C1.90625 360.662 90.7188 219.891 354.464 214.277C354.464 214.277 602.276 213.824 726.042 214.386C858.401 214.949 951.182 301.839 951.521 423.699C951.745 551.563 862.609 635.423 725.089 636.542C625.292 637.329 525.38 635.646 425.578 639.35C358.729 641.709 316.63 687.339 318.203 745.938C319.771 806.11 362.656 846.975 429.562 848.433C502.984 850.12 576.516 850.678 649.99 848.657C682.938 847.647 706.792 857.808 729.635 881.1C805.469 958.73 930.583 1091.08 1007.43 1167.7H1164.08V1167.76Z" fill="white"/>
<path d="M846.104 429.813C843.974 489.313 799.63 530.735 733.51 531.521C635.62 532.756 537.672 531.412 439.781 532.199C303.214 533.318 212.677 618.527 212.453 745.042C212.229 866.787 304.901 965.131 641.734 954.016L856.266 1167.65C573.146 1167.87 495.74 1167.87 418.224 1166.41C186.63 1162.31 4.65625 982.079 0.390627 755.032C-3.93229 523.61 170.521 332.318 401.891 320.756C512.807 315.199 624 317.834 735.135 319.631C802.099 320.641 848.24 369.193 846.104 429.813Z" fill="white"/>
</svg>
